<mxfile host="Electron" agent="Mozilla/5.0 (Windows NT 10.0; Win64; x64) AppleWebKit/537.36 (KHTML, like Gecko) draw.io/28.1.2 Chrome/138.0.7204.243 Electron/37.4.0 Safari/537.36" version="28.1.2">
  <diagram name="Page-1" id="R90nyv3Rz4XIFROkiVHW">
    <mxGraphModel dx="1240" dy="738" grid="1" gridSize="10" guides="1" tooltips="1" connect="1" arrows="1" fold="1" page="1" pageScale="1" pageWidth="1600" pageHeight="1200" math="0" shadow="0">
      <root>
        <mxCell id="0" />
        <mxCell id="1" parent="0" />
        <mxCell id="1lQt2iCKs8pIlGNOvXYT-43" value="" style="whiteSpace=wrap;html=1;opacity=90;perimeterSpacing=1;fontStyle=1;spacing=0;" parent="1" vertex="1">
          <mxGeometry x="281" y="140" width="260" height="960" as="geometry" />
        </mxCell>
        <mxCell id="6-GH_caQHHYFCM8O0zI6-21" style="rounded=0;orthogonalLoop=1;jettySize=auto;html=1;exitX=0.997;exitY=0.517;exitDx=0;exitDy=0;entryX=0;entryY=0.5;entryDx=0;entryDy=0;exitPerimeter=0;" edge="1" parent="1" source="rxIv7JKoTVmc35k2_a1N-58" target="3E_d9uGPmS8snrze4PGS-29">
          <mxGeometry relative="1" as="geometry" />
        </mxCell>
        <mxCell id="rxIv7JKoTVmc35k2_a1N-58" value="" style="rounded=0;whiteSpace=wrap;html=1;container=0;" parent="1" vertex="1">
          <mxGeometry x="580" y="140" width="50" height="950" as="geometry" />
        </mxCell>
        <mxCell id="3E_d9uGPmS8snrze4PGS-16" value="" style="rounded=1;whiteSpace=wrap;html=1;shadow=0;fontStyle=1" parent="1" vertex="1">
          <mxGeometry x="301" y="186.5" width="220" height="269" as="geometry" />
        </mxCell>
        <mxCell id="6-GH_caQHHYFCM8O0zI6-12" style="rounded=0;orthogonalLoop=1;jettySize=auto;html=1;exitX=1;exitY=0.5;exitDx=0;exitDy=0;endArrow=none;endFill=0;dashed=1;dashPattern=12 12;" edge="1" parent="1" source="3E_d9uGPmS8snrze4PGS-25">
          <mxGeometry relative="1" as="geometry">
            <mxPoint x="200" y="640" as="targetPoint" />
          </mxGeometry>
        </mxCell>
        <mxCell id="3E_d9uGPmS8snrze4PGS-25" value="Final point" style="rounded=1;whiteSpace=wrap;html=1;shadow=0;fontStyle=1" parent="1" vertex="1">
          <mxGeometry x="10" y="810" width="120" height="60" as="geometry" />
        </mxCell>
        <mxCell id="3E_d9uGPmS8snrze4PGS-33" value="" style="rounded=0;orthogonalLoop=1;jettySize=auto;html=1;fontStyle=1" parent="1" source="3E_d9uGPmS8snrze4PGS-29" target="3E_d9uGPmS8snrze4PGS-32" edge="1">
          <mxGeometry relative="1" as="geometry" />
        </mxCell>
        <mxCell id="3E_d9uGPmS8snrze4PGS-29" value="" style="ellipse;whiteSpace=wrap;html=1;fontStyle=1" parent="1" vertex="1">
          <mxGeometry x="715" y="616" width="30" height="30" as="geometry" />
        </mxCell>
        <mxCell id="3E_d9uGPmS8snrze4PGS-35" value="" style="rounded=0;orthogonalLoop=1;jettySize=auto;html=1;fontStyle=1" parent="1" source="3E_d9uGPmS8snrze4PGS-32" target="3E_d9uGPmS8snrze4PGS-34" edge="1">
          <mxGeometry relative="1" as="geometry" />
        </mxCell>
        <mxCell id="3E_d9uGPmS8snrze4PGS-32" value="PD Controller" style="whiteSpace=wrap;html=1;fontStyle=1" parent="1" vertex="1">
          <mxGeometry x="775" y="601" width="120" height="60" as="geometry" />
        </mxCell>
        <mxCell id="3E_d9uGPmS8snrze4PGS-37" value="" style="rounded=0;orthogonalLoop=1;jettySize=auto;html=1;entryX=-0.028;entryY=0.503;entryDx=0;entryDy=0;entryPerimeter=0;fontStyle=1" parent="1" source="3E_d9uGPmS8snrze4PGS-34" target="3E_d9uGPmS8snrze4PGS-50" edge="1">
          <mxGeometry relative="1" as="geometry">
            <mxPoint x="1100" y="620" as="targetPoint" />
          </mxGeometry>
        </mxCell>
        <mxCell id="3E_d9uGPmS8snrze4PGS-34" value="Plant" style="whiteSpace=wrap;html=1;fontStyle=1" parent="1" vertex="1">
          <mxGeometry x="955" y="603" width="120" height="60" as="geometry" />
        </mxCell>
        <mxCell id="3E_d9uGPmS8snrze4PGS-39" value="" style="rounded=0;orthogonalLoop=1;jettySize=auto;html=1;exitX=1;exitY=0.5;exitDx=0;exitDy=0;fontStyle=1" parent="1" source="3E_d9uGPmS8snrze4PGS-50" target="3E_d9uGPmS8snrze4PGS-38" edge="1">
          <mxGeometry relative="1" as="geometry">
            <mxPoint x="1145" y="620" as="sourcePoint" />
          </mxGeometry>
        </mxCell>
        <mxCell id="3E_d9uGPmS8snrze4PGS-40" style="edgeStyle=none;rounded=0;orthogonalLoop=1;jettySize=auto;html=1;exitX=1;exitY=0.5;exitDx=0;exitDy=0;entryX=0.5;entryY=1;entryDx=0;entryDy=0;fontStyle=1" parent="1" source="3E_d9uGPmS8snrze4PGS-38" target="3E_d9uGPmS8snrze4PGS-29" edge="1">
          <mxGeometry relative="1" as="geometry">
            <Array as="points">
              <mxPoint x="1285" y="633" />
              <mxPoint x="1285" y="711" />
              <mxPoint x="1285" y="801" />
              <mxPoint x="730" y="800" />
            </Array>
          </mxGeometry>
        </mxCell>
        <mxCell id="3E_d9uGPmS8snrze4PGS-38" value="1/s" style="whiteSpace=wrap;html=1;fontStyle=1" parent="1" vertex="1">
          <mxGeometry x="1215" y="603" width="35" height="60" as="geometry" />
        </mxCell>
        <mxCell id="3E_d9uGPmS8snrze4PGS-50" value="1/s" style="whiteSpace=wrap;html=1;fontStyle=1" parent="1" vertex="1">
          <mxGeometry x="1115" y="603" width="35" height="60" as="geometry" />
        </mxCell>
        <mxCell id="B_tfwksmqr3Z3jyx1dYL-47" value="&lt;font style=&quot;font-size: 14px;&quot;&gt;&lt;b style=&quot;&quot;&gt;PreFilter&lt;/b&gt;&lt;/font&gt;" style="text;html=1;align=center;verticalAlign=middle;resizable=0;points=[];autosize=1;strokeColor=none;fillColor=none;" parent="1" vertex="1">
          <mxGeometry x="371" y="100" width="80" height="30" as="geometry" />
        </mxCell>
        <mxCell id="6-GH_caQHHYFCM8O0zI6-10" style="rounded=0;orthogonalLoop=1;jettySize=auto;html=1;exitX=1;exitY=0.5;exitDx=0;exitDy=0;dashed=1;dashPattern=12 12;endArrow=none;endFill=0;" edge="1" parent="1" source="6-GH_caQHHYFCM8O0zI6-1">
          <mxGeometry relative="1" as="geometry">
            <mxPoint x="200" y="640" as="targetPoint" />
          </mxGeometry>
        </mxCell>
        <mxCell id="6-GH_caQHHYFCM8O0zI6-1" value="Control Point 2" style="rounded=1;whiteSpace=wrap;html=1;shadow=0;fontStyle=1" vertex="1" parent="1">
          <mxGeometry x="10" y="514" width="120" height="60" as="geometry" />
        </mxCell>
        <mxCell id="6-GH_caQHHYFCM8O0zI6-9" style="rounded=0;orthogonalLoop=1;jettySize=auto;html=1;exitX=1;exitY=0.5;exitDx=0;exitDy=0;endArrow=none;endFill=0;dashed=1;dashPattern=12 12;" edge="1" parent="1" source="6-GH_caQHHYFCM8O0zI6-2">
          <mxGeometry relative="1" as="geometry">
            <mxPoint x="200" y="640" as="targetPoint" />
          </mxGeometry>
        </mxCell>
        <mxCell id="6-GH_caQHHYFCM8O0zI6-2" value="Control Point 1" style="rounded=1;whiteSpace=wrap;html=1;shadow=0;fontStyle=1" vertex="1" parent="1">
          <mxGeometry x="10" y="413" width="120" height="60" as="geometry" />
        </mxCell>
        <mxCell id="6-GH_caQHHYFCM8O0zI6-7" style="rounded=0;orthogonalLoop=1;jettySize=auto;html=1;exitX=1;exitY=0.5;exitDx=0;exitDy=0;endArrow=none;endFill=0;" edge="1" parent="1" source="6-GH_caQHHYFCM8O0zI6-3">
          <mxGeometry relative="1" as="geometry">
            <mxPoint x="200" y="640" as="targetPoint" />
          </mxGeometry>
        </mxCell>
        <mxCell id="6-GH_caQHHYFCM8O0zI6-3" value="Start point" style="rounded=1;whiteSpace=wrap;html=1;shadow=0;fontStyle=1" vertex="1" parent="1">
          <mxGeometry x="10" y="322" width="120" height="60" as="geometry" />
        </mxCell>
        <mxCell id="6-GH_caQHHYFCM8O0zI6-11" style="rounded=0;orthogonalLoop=1;jettySize=auto;html=1;exitX=1;exitY=0.5;exitDx=0;exitDy=0;endArrow=none;endFill=0;dashed=1;dashPattern=12 12;" edge="1" parent="1" source="6-GH_caQHHYFCM8O0zI6-4">
          <mxGeometry relative="1" as="geometry">
            <mxPoint x="200" y="640" as="targetPoint" />
          </mxGeometry>
        </mxCell>
        <mxCell id="6-GH_caQHHYFCM8O0zI6-4" value="Control Point 3" style="rounded=1;whiteSpace=wrap;html=1;shadow=0;fontStyle=1" vertex="1" parent="1">
          <mxGeometry x="10" y="610" width="120" height="60" as="geometry" />
        </mxCell>
        <mxCell id="6-GH_caQHHYFCM8O0zI6-6" value="&lt;font style=&quot;font-size: 24px;&quot;&gt;&lt;b&gt;.&lt;/b&gt;&lt;/font&gt;&lt;div&gt;&lt;font style=&quot;font-size: 24px;&quot;&gt;&lt;b&gt;.&lt;/b&gt;&lt;/font&gt;&lt;/div&gt;&lt;div&gt;&lt;font style=&quot;font-size: 24px;&quot;&gt;&lt;b&gt;.&lt;/b&gt;&lt;/font&gt;&lt;/div&gt;" style="text;html=1;align=center;verticalAlign=middle;whiteSpace=wrap;rounded=0;" vertex="1" parent="1">
          <mxGeometry x="40" y="657.98" width="60" height="129.02" as="geometry" />
        </mxCell>
        <mxCell id="6-GH_caQHHYFCM8O0zI6-27" style="rounded=0;orthogonalLoop=1;jettySize=auto;html=1;exitX=0.5;exitY=1;exitDx=0;exitDy=0;entryX=0.5;entryY=0;entryDx=0;entryDy=0;dashed=1;" edge="1" parent="1" source="6-GH_caQHHYFCM8O0zI6-22" target="6-GH_caQHHYFCM8O0zI6-23">
          <mxGeometry relative="1" as="geometry" />
        </mxCell>
        <mxCell id="6-GH_caQHHYFCM8O0zI6-22" value="w&lt;sub&gt;n11&lt;/sub&gt;&lt;div&gt;CP&lt;sub&gt;11&lt;/sub&gt;&lt;/div&gt;" style="rounded=1;whiteSpace=wrap;html=1;" vertex="1" parent="1">
          <mxGeometry x="351" y="200" width="120" height="60" as="geometry" />
        </mxCell>
        <mxCell id="6-GH_caQHHYFCM8O0zI6-28" style="rounded=0;orthogonalLoop=1;jettySize=auto;html=1;exitX=0.5;exitY=1;exitDx=0;exitDy=0;entryX=0.5;entryY=0;entryDx=0;entryDy=0;dashed=1;" edge="1" parent="1" source="6-GH_caQHHYFCM8O0zI6-23" target="6-GH_caQHHYFCM8O0zI6-24">
          <mxGeometry relative="1" as="geometry" />
        </mxCell>
        <mxCell id="6-GH_caQHHYFCM8O0zI6-23" value="w&lt;sub&gt;n12&lt;/sub&gt;&lt;div&gt;CP&lt;sub&gt;12&lt;/sub&gt;&lt;/div&gt;" style="rounded=1;whiteSpace=wrap;html=1;" vertex="1" parent="1">
          <mxGeometry x="351" y="290" width="120" height="60" as="geometry" />
        </mxCell>
        <mxCell id="6-GH_caQHHYFCM8O0zI6-24" value="w&lt;sub&gt;n13&lt;/sub&gt;&lt;div&gt;CP&lt;sub&gt;13&lt;/sub&gt;&lt;/div&gt;" style="rounded=1;whiteSpace=wrap;html=1;" vertex="1" parent="1">
          <mxGeometry x="351" y="382" width="120" height="60" as="geometry" />
        </mxCell>
        <mxCell id="6-GH_caQHHYFCM8O0zI6-25" value="&lt;b&gt;&lt;font style=&quot;font-size: 18px;&quot;&gt;Joint 1&lt;/font&gt;&lt;/b&gt;" style="text;html=1;align=center;verticalAlign=middle;whiteSpace=wrap;rounded=0;" vertex="1" parent="1">
          <mxGeometry x="381" y="150" width="60" height="30" as="geometry" />
        </mxCell>
        <mxCell id="6-GH_caQHHYFCM8O0zI6-29" value="&lt;font style=&quot;font-size: 9px;&quot;&gt;State Update&lt;/font&gt;" style="text;html=1;align=center;verticalAlign=middle;whiteSpace=wrap;rounded=0;" vertex="1" parent="1">
          <mxGeometry x="416" y="260" width="60" height="30" as="geometry" />
        </mxCell>
        <mxCell id="6-GH_caQHHYFCM8O0zI6-30" value="&lt;font style=&quot;font-size: 9px;&quot;&gt;State Update&lt;/font&gt;" style="text;html=1;align=center;verticalAlign=middle;whiteSpace=wrap;rounded=0;" vertex="1" parent="1">
          <mxGeometry x="416" y="352" width="60" height="30" as="geometry" />
        </mxCell>
        <mxCell id="6-GH_caQHHYFCM8O0zI6-32" style="rounded=0;orthogonalLoop=1;jettySize=auto;html=1;exitX=0;exitY=0.5;exitDx=0;exitDy=0;entryX=0;entryY=0.5;entryDx=0;entryDy=0;" edge="1" parent="1" source="3E_d9uGPmS8snrze4PGS-16" target="6-GH_caQHHYFCM8O0zI6-22">
          <mxGeometry relative="1" as="geometry" />
        </mxCell>
        <mxCell id="6-GH_caQHHYFCM8O0zI6-33" style="rounded=0;orthogonalLoop=1;jettySize=auto;html=1;exitX=0;exitY=0.5;exitDx=0;exitDy=0;entryX=0;entryY=0.5;entryDx=0;entryDy=0;dashed=1;" edge="1" parent="1" source="3E_d9uGPmS8snrze4PGS-16" target="6-GH_caQHHYFCM8O0zI6-23">
          <mxGeometry relative="1" as="geometry" />
        </mxCell>
        <mxCell id="6-GH_caQHHYFCM8O0zI6-34" style="rounded=0;orthogonalLoop=1;jettySize=auto;html=1;exitX=0;exitY=0.5;exitDx=0;exitDy=0;entryX=0;entryY=0.5;entryDx=0;entryDy=0;dashed=1;" edge="1" parent="1" source="3E_d9uGPmS8snrze4PGS-16" target="6-GH_caQHHYFCM8O0zI6-24">
          <mxGeometry relative="1" as="geometry" />
        </mxCell>
        <mxCell id="6-GH_caQHHYFCM8O0zI6-66" value="" style="rounded=1;whiteSpace=wrap;html=1;shadow=0;fontStyle=1" vertex="1" parent="1">
          <mxGeometry x="301" y="505.5" width="220" height="269" as="geometry" />
        </mxCell>
        <mxCell id="6-GH_caQHHYFCM8O0zI6-67" style="rounded=0;orthogonalLoop=1;jettySize=auto;html=1;exitX=0.5;exitY=1;exitDx=0;exitDy=0;entryX=0.5;entryY=0;entryDx=0;entryDy=0;dashed=1;" edge="1" parent="1" source="6-GH_caQHHYFCM8O0zI6-68" target="6-GH_caQHHYFCM8O0zI6-70">
          <mxGeometry relative="1" as="geometry" />
        </mxCell>
        <mxCell id="6-GH_caQHHYFCM8O0zI6-68" value="w&lt;sub&gt;n11&lt;/sub&gt;&lt;div&gt;CP&lt;sub&gt;11&lt;/sub&gt;&lt;/div&gt;" style="rounded=1;whiteSpace=wrap;html=1;" vertex="1" parent="1">
          <mxGeometry x="351" y="519" width="120" height="60" as="geometry" />
        </mxCell>
        <mxCell id="6-GH_caQHHYFCM8O0zI6-69" style="rounded=0;orthogonalLoop=1;jettySize=auto;html=1;exitX=0.5;exitY=1;exitDx=0;exitDy=0;entryX=0.5;entryY=0;entryDx=0;entryDy=0;dashed=1;" edge="1" parent="1" source="6-GH_caQHHYFCM8O0zI6-70" target="6-GH_caQHHYFCM8O0zI6-71">
          <mxGeometry relative="1" as="geometry" />
        </mxCell>
        <mxCell id="6-GH_caQHHYFCM8O0zI6-70" value="w&lt;sub&gt;n12&lt;/sub&gt;&lt;div&gt;CP&lt;sub&gt;12&lt;/sub&gt;&lt;/div&gt;" style="rounded=1;whiteSpace=wrap;html=1;" vertex="1" parent="1">
          <mxGeometry x="351" y="609" width="120" height="60" as="geometry" />
        </mxCell>
        <mxCell id="6-GH_caQHHYFCM8O0zI6-71" value="w&lt;sub&gt;n13&lt;/sub&gt;&lt;div&gt;CP&lt;sub&gt;13&lt;/sub&gt;&lt;/div&gt;" style="rounded=1;whiteSpace=wrap;html=1;" vertex="1" parent="1">
          <mxGeometry x="351" y="701" width="120" height="60" as="geometry" />
        </mxCell>
        <mxCell id="6-GH_caQHHYFCM8O0zI6-72" value="&lt;font style=&quot;font-size: 9px;&quot;&gt;State Update&lt;/font&gt;" style="text;html=1;align=center;verticalAlign=middle;whiteSpace=wrap;rounded=0;" vertex="1" parent="1">
          <mxGeometry x="416" y="579" width="60" height="30" as="geometry" />
        </mxCell>
        <mxCell id="6-GH_caQHHYFCM8O0zI6-73" value="&lt;font style=&quot;font-size: 9px;&quot;&gt;State Update&lt;/font&gt;" style="text;html=1;align=center;verticalAlign=middle;whiteSpace=wrap;rounded=0;" vertex="1" parent="1">
          <mxGeometry x="416" y="671" width="60" height="30" as="geometry" />
        </mxCell>
        <mxCell id="6-GH_caQHHYFCM8O0zI6-74" style="rounded=0;orthogonalLoop=1;jettySize=auto;html=1;exitX=0;exitY=0.5;exitDx=0;exitDy=0;entryX=0;entryY=0.5;entryDx=0;entryDy=0;" edge="1" parent="1" source="6-GH_caQHHYFCM8O0zI6-66" target="6-GH_caQHHYFCM8O0zI6-68">
          <mxGeometry relative="1" as="geometry" />
        </mxCell>
        <mxCell id="6-GH_caQHHYFCM8O0zI6-75" style="rounded=0;orthogonalLoop=1;jettySize=auto;html=1;exitX=0;exitY=0.5;exitDx=0;exitDy=0;entryX=0;entryY=0.5;entryDx=0;entryDy=0;dashed=1;" edge="1" parent="1" source="6-GH_caQHHYFCM8O0zI6-66" target="6-GH_caQHHYFCM8O0zI6-70">
          <mxGeometry relative="1" as="geometry" />
        </mxCell>
        <mxCell id="6-GH_caQHHYFCM8O0zI6-76" style="rounded=0;orthogonalLoop=1;jettySize=auto;html=1;exitX=0;exitY=0.5;exitDx=0;exitDy=0;entryX=0;entryY=0.5;entryDx=0;entryDy=0;dashed=1;" edge="1" parent="1" source="6-GH_caQHHYFCM8O0zI6-66" target="6-GH_caQHHYFCM8O0zI6-71">
          <mxGeometry relative="1" as="geometry" />
        </mxCell>
        <mxCell id="6-GH_caQHHYFCM8O0zI6-77" value="" style="rounded=1;whiteSpace=wrap;html=1;shadow=0;fontStyle=1" vertex="1" parent="1">
          <mxGeometry x="301" y="821" width="220" height="269" as="geometry" />
        </mxCell>
        <mxCell id="6-GH_caQHHYFCM8O0zI6-78" style="rounded=0;orthogonalLoop=1;jettySize=auto;html=1;exitX=0.5;exitY=1;exitDx=0;exitDy=0;entryX=0.5;entryY=0;entryDx=0;entryDy=0;dashed=1;" edge="1" parent="1" source="6-GH_caQHHYFCM8O0zI6-79" target="6-GH_caQHHYFCM8O0zI6-81">
          <mxGeometry relative="1" as="geometry" />
        </mxCell>
        <mxCell id="6-GH_caQHHYFCM8O0zI6-79" value="w&lt;sub&gt;n11&lt;/sub&gt;&lt;div&gt;CP&lt;sub&gt;11&lt;/sub&gt;&lt;/div&gt;" style="rounded=1;whiteSpace=wrap;html=1;" vertex="1" parent="1">
          <mxGeometry x="351" y="834.5" width="120" height="60" as="geometry" />
        </mxCell>
        <mxCell id="6-GH_caQHHYFCM8O0zI6-80" style="rounded=0;orthogonalLoop=1;jettySize=auto;html=1;exitX=0.5;exitY=1;exitDx=0;exitDy=0;entryX=0.5;entryY=0;entryDx=0;entryDy=0;dashed=1;" edge="1" parent="1" source="6-GH_caQHHYFCM8O0zI6-81" target="6-GH_caQHHYFCM8O0zI6-82">
          <mxGeometry relative="1" as="geometry" />
        </mxCell>
        <mxCell id="6-GH_caQHHYFCM8O0zI6-81" value="w&lt;sub&gt;n12&lt;/sub&gt;&lt;div&gt;CP&lt;sub&gt;12&lt;/sub&gt;&lt;/div&gt;" style="rounded=1;whiteSpace=wrap;html=1;" vertex="1" parent="1">
          <mxGeometry x="351" y="924.5" width="120" height="60" as="geometry" />
        </mxCell>
        <mxCell id="6-GH_caQHHYFCM8O0zI6-82" value="w&lt;sub&gt;n13&lt;/sub&gt;&lt;div&gt;CP&lt;sub&gt;13&lt;/sub&gt;&lt;/div&gt;" style="rounded=1;whiteSpace=wrap;html=1;" vertex="1" parent="1">
          <mxGeometry x="351" y="1016.5" width="120" height="60" as="geometry" />
        </mxCell>
        <mxCell id="6-GH_caQHHYFCM8O0zI6-83" value="&lt;font style=&quot;font-size: 9px;&quot;&gt;State Update&lt;/font&gt;" style="text;html=1;align=center;verticalAlign=middle;whiteSpace=wrap;rounded=0;" vertex="1" parent="1">
          <mxGeometry x="416" y="894.5" width="60" height="30" as="geometry" />
        </mxCell>
        <mxCell id="6-GH_caQHHYFCM8O0zI6-84" value="&lt;font style=&quot;font-size: 9px;&quot;&gt;State Update&lt;/font&gt;" style="text;html=1;align=center;verticalAlign=middle;whiteSpace=wrap;rounded=0;" vertex="1" parent="1">
          <mxGeometry x="416" y="986.5" width="60" height="30" as="geometry" />
        </mxCell>
        <mxCell id="6-GH_caQHHYFCM8O0zI6-85" style="rounded=0;orthogonalLoop=1;jettySize=auto;html=1;exitX=0;exitY=0.5;exitDx=0;exitDy=0;entryX=0;entryY=0.5;entryDx=0;entryDy=0;" edge="1" parent="1" source="6-GH_caQHHYFCM8O0zI6-77" target="6-GH_caQHHYFCM8O0zI6-79">
          <mxGeometry relative="1" as="geometry" />
        </mxCell>
        <mxCell id="6-GH_caQHHYFCM8O0zI6-86" style="rounded=0;orthogonalLoop=1;jettySize=auto;html=1;exitX=0;exitY=0.5;exitDx=0;exitDy=0;entryX=0;entryY=0.5;entryDx=0;entryDy=0;dashed=1;" edge="1" parent="1" source="6-GH_caQHHYFCM8O0zI6-77" target="6-GH_caQHHYFCM8O0zI6-81">
          <mxGeometry relative="1" as="geometry" />
        </mxCell>
        <mxCell id="6-GH_caQHHYFCM8O0zI6-87" style="rounded=0;orthogonalLoop=1;jettySize=auto;html=1;exitX=0;exitY=0.5;exitDx=0;exitDy=0;entryX=0;entryY=0.5;entryDx=0;entryDy=0;dashed=1;" edge="1" parent="1" source="6-GH_caQHHYFCM8O0zI6-77" target="6-GH_caQHHYFCM8O0zI6-82">
          <mxGeometry relative="1" as="geometry" />
        </mxCell>
        <mxCell id="6-GH_caQHHYFCM8O0zI6-88" value="&lt;b&gt;&lt;font style=&quot;font-size: 18px;&quot;&gt;Joint 2&lt;/font&gt;&lt;/b&gt;" style="text;html=1;align=center;verticalAlign=middle;whiteSpace=wrap;rounded=0;" vertex="1" parent="1">
          <mxGeometry x="381" y="471" width="60" height="30" as="geometry" />
        </mxCell>
        <mxCell id="6-GH_caQHHYFCM8O0zI6-89" value="&lt;b&gt;&lt;font style=&quot;font-size: 18px;&quot;&gt;Joint 3&lt;/font&gt;&lt;/b&gt;" style="text;html=1;align=center;verticalAlign=middle;whiteSpace=wrap;rounded=0;" vertex="1" parent="1">
          <mxGeometry x="371" y="790" width="60" height="30" as="geometry" />
        </mxCell>
        <mxCell id="6-GH_caQHHYFCM8O0zI6-93" style="rounded=0;orthogonalLoop=1;jettySize=auto;html=1;exitX=0.963;exitY=0.185;exitDx=0;exitDy=0;exitPerimeter=0;endArrow=none;endFill=0;" edge="1" parent="1" source="6-GH_caQHHYFCM8O0zI6-92">
          <mxGeometry relative="1" as="geometry">
            <mxPoint x="300" y="319.9999999999998" as="targetPoint" />
          </mxGeometry>
        </mxCell>
        <mxCell id="6-GH_caQHHYFCM8O0zI6-94" style="edgeStyle=orthogonalEdgeStyle;rounded=0;orthogonalLoop=1;jettySize=auto;html=1;exitX=1;exitY=0.522;exitDx=0;exitDy=0;exitPerimeter=0;endArrow=none;endFill=0;" edge="1" parent="1" source="6-GH_caQHHYFCM8O0zI6-92">
          <mxGeometry relative="1" as="geometry">
            <mxPoint x="300" y="640" as="targetPoint" />
          </mxGeometry>
        </mxCell>
        <mxCell id="6-GH_caQHHYFCM8O0zI6-97" style="edgeStyle=orthogonalEdgeStyle;rounded=0;orthogonalLoop=1;jettySize=auto;html=1;exitX=1.001;exitY=0.853;exitDx=0;exitDy=0;entryX=0;entryY=0.5;entryDx=0;entryDy=0;exitPerimeter=0;endArrow=none;endFill=0;" edge="1" parent="1" source="6-GH_caQHHYFCM8O0zI6-92" target="6-GH_caQHHYFCM8O0zI6-77">
          <mxGeometry relative="1" as="geometry">
            <mxPoint x="290" y="870" as="targetPoint" />
          </mxGeometry>
        </mxCell>
        <mxCell id="6-GH_caQHHYFCM8O0zI6-92" value="" style="rounded=0;whiteSpace=wrap;html=1;container=0;" vertex="1" parent="1">
          <mxGeometry x="200" y="145" width="50" height="950" as="geometry" />
        </mxCell>
        <mxCell id="6-GH_caQHHYFCM8O0zI6-98" value="&lt;font style=&quot;font-size: 14px;&quot;&gt;&lt;b style=&quot;&quot;&gt;B&amp;nbsp; &amp;nbsp; &amp;nbsp; &amp;nbsp; &amp;nbsp; &amp;nbsp; &amp;nbsp; U&amp;nbsp; &amp;nbsp; &amp;nbsp; &amp;nbsp; &amp;nbsp; &amp;nbsp; &amp;nbsp; S&lt;/b&gt;&lt;/font&gt;" style="text;html=1;align=center;verticalAlign=middle;resizable=0;points=[];autosize=1;strokeColor=none;fillColor=none;rotation=-90;" vertex="1" parent="1">
          <mxGeometry x="145" y="624" width="160" height="30" as="geometry" />
        </mxCell>
        <mxCell id="6-GH_caQHHYFCM8O0zI6-100" value="&lt;font style=&quot;font-size: 14px;&quot;&gt;&lt;b style=&quot;&quot;&gt;B&amp;nbsp; &amp;nbsp; &amp;nbsp; &amp;nbsp; &amp;nbsp; &amp;nbsp; &amp;nbsp; &amp;nbsp;U&amp;nbsp; &amp;nbsp; &amp;nbsp; &amp;nbsp; &amp;nbsp; &amp;nbsp; &amp;nbsp; &amp;nbsp;S&lt;/b&gt;&lt;/font&gt;" style="text;html=1;align=center;verticalAlign=middle;resizable=0;points=[];autosize=1;strokeColor=none;fillColor=none;rotation=-90;" vertex="1" parent="1">
          <mxGeometry x="520" y="616" width="170" height="30" as="geometry" />
        </mxCell>
        <mxCell id="6-GH_caQHHYFCM8O0zI6-101" style="edgeStyle=orthogonalEdgeStyle;rounded=0;orthogonalLoop=1;jettySize=auto;html=1;exitX=1;exitY=0.5;exitDx=0;exitDy=0;entryX=-0.003;entryY=0.19;entryDx=0;entryDy=0;entryPerimeter=0;" edge="1" parent="1" source="3E_d9uGPmS8snrze4PGS-16" target="rxIv7JKoTVmc35k2_a1N-58">
          <mxGeometry relative="1" as="geometry" />
        </mxCell>
        <mxCell id="6-GH_caQHHYFCM8O0zI6-102" style="edgeStyle=orthogonalEdgeStyle;rounded=0;orthogonalLoop=1;jettySize=auto;html=1;exitX=1;exitY=0.5;exitDx=0;exitDy=0;entryX=-0.003;entryY=0.525;entryDx=0;entryDy=0;entryPerimeter=0;" edge="1" parent="1" source="6-GH_caQHHYFCM8O0zI6-66" target="rxIv7JKoTVmc35k2_a1N-58">
          <mxGeometry relative="1" as="geometry" />
        </mxCell>
        <mxCell id="6-GH_caQHHYFCM8O0zI6-103" style="edgeStyle=orthogonalEdgeStyle;rounded=0;orthogonalLoop=1;jettySize=auto;html=1;exitX=1;exitY=0.5;exitDx=0;exitDy=0;entryX=-0.065;entryY=0.857;entryDx=0;entryDy=0;entryPerimeter=0;" edge="1" parent="1" source="6-GH_caQHHYFCM8O0zI6-77" target="rxIv7JKoTVmc35k2_a1N-58">
          <mxGeometry relative="1" as="geometry" />
        </mxCell>
        <mxCell id="6-GH_caQHHYFCM8O0zI6-105" value="&lt;b&gt;Phase 1&lt;/b&gt;" style="text;html=1;align=center;verticalAlign=middle;whiteSpace=wrap;rounded=0;" vertex="1" parent="1">
          <mxGeometry x="290" y="330" width="60" height="30" as="geometry" />
        </mxCell>
      </root>
    </mxGraphModel>
  </diagram>
</mxfile>
